<?xml version="1.0" encoding="UTF-8"?> <svg xmlns="http://www.w3.org/2000/svg" width="24" height="24" viewBox="0 0 24 24" fill="none"><path fill-rule="evenodd" clip-rule="evenodd" d="M11.798 9.12782L11.828 9.63582L11.322 9.57382C9.482 9.33482 7.872 8.52582 6.507 7.16582L5.84 6.49182L5.668 6.98982C5.303 8.09982 5.536 9.27282 6.295 10.0618C6.699 10.4978 6.608 10.5598 5.91 10.2998C5.668 10.2168 5.455 10.1548 5.435 10.1858C5.365 10.2588 5.607 11.2028 5.799 11.5758C6.062 12.0958 6.599 12.6038 7.185 12.9058L7.681 13.1438L7.094 13.1538C6.528 13.1538 6.507 13.1638 6.568 13.3828C6.77 14.0568 7.569 14.7728 8.46 15.0848L9.087 15.3028L8.541 15.6348C7.731 16.1118 6.781 16.3818 5.83 16.4028C5.374 16.4128 5 16.4548 5 16.4858C5 16.5898 6.234 17.1708 6.952 17.3988C9.107 18.0738 11.666 17.7828 13.588 16.6308C14.954 15.8108 16.32 14.1808 16.957 12.6038C17.301 11.7638 17.645 10.2278 17.645 9.49082C17.645 9.01282 17.675 8.95082 18.242 8.38082C18.575 8.04782 18.889 7.68482 18.95 7.58082C19.05 7.38382 19.04 7.38382 18.525 7.56082C17.665 7.87082 17.544 7.83082 17.968 7.36282C18.282 7.03082 18.656 6.42882 18.656 6.25282C18.656 6.22182 18.505 6.27282 18.333 6.36682C18.151 6.47082 17.746 6.62682 17.443 6.71982L16.896 6.89582L16.4 6.55382C16.127 6.36682 15.743 6.15882 15.54 6.09682C15.025 5.95182 14.236 5.97282 13.77 6.13882C12.506 6.60582 11.707 7.80882 11.798 9.12782Z" fill="white"></path></svg> 