<?xml version="1.0" encoding="UTF-8"?> <svg xmlns="http://www.w3.org/2000/svg" width="24" height="24" viewBox="0 0 24 24" fill="none"><path d="M19.84 8.495C19.84 8.495 20 9.827 20 11.158V12.406C20 13.736 19.84 15.068 19.84 15.068C19.84 15.068 19.683 16.201 19.204 16.7C18.596 17.355 17.914 17.358 17.601 17.397C15.362 17.564 12 17.569 12 17.569C12 17.569 7.84 17.529 6.56 17.403C6.204 17.335 5.405 17.355 4.795 16.7C4.316 16.201 4.16 15.068 4.16 15.068C4.16 15.068 4 13.737 4 12.406V11.158C4 9.827 4.16 8.495 4.16 8.495C4.16 8.495 4.316 7.362 4.795 6.863C5.405 6.208 6.086 6.205 6.399 6.167C8.638 6 11.997 6 11.997 6H12.004C12.004 6 15.362 6 17.601 6.167C17.914 6.205 18.596 6.207 19.204 6.863C19.684 7.363 19.84 8.495 19.84 8.495ZM10.348 13.918L14.67 11.615L10.347 9.296L10.348 13.918Z" fill="white"></path></svg> 